<svg xmlns="http://www.w3.org/2000/svg" viewBox="0 0 505 505"><defs><style>.a{fill:#ff4c00;}.b{fill:none;}.c{fill:#fff;}</style></defs><title>nke-logo</title><rect class="a" width="505" height="505"/><path class="b" d="M641.33,689.73q-1.07-16.05-8.56-24.28T612,657.22q-13.17,0-21.26,9.21T580.39,692.1h60.94Z" transform="translate(-223.5 -227.5)"/><polygon class="b" points="232.59 502.64 232.59 505 258.55 505 246.81 488.03 232.59 502.64"/><path class="b" d="M275.5,572.5v160h2.43V634.19h30.14l.92,16.45q15.79-19.08,41.46-19.09,44.49,0,45.28,50.94v50h28.38V574.43h32V691.05l10-12.51,39.35-44.35h38.43L491,693.55l27.47,39h32.21a86,86,0,0,1-3-23.42v-4q0-21.32,8.23-38.1a62.55,62.55,0,0,1,23.1-26.13,61.06,61.06,0,0,1,33.17-9.35q29.08,0,44.95,18.56t15.86,52.52v12.9H579.86a50.06,50.06,0,0,0,4.2,17H675.5v-160Z" transform="translate(-223.5 -227.5)"/><path class="b" d="M357.89,664.26q-5.86-6.51-19.16-6.51-19.34,0-28.82,17.5V732.5h53.83V684.33Q363.74,670.78,357.89,664.26Z" transform="translate(-223.5 -227.5)"/><path class="c" d="M350.45,631.55q-25.67,0-41.46,19.09l-.92-16.45H277.93V732.5h32V675.25q9.48-17.5,28.82-17.5,13.31,0,19.16,6.51t5.85,20.07V732.5h32v-50Q394.93,631.55,350.45,631.55Z" transform="translate(-223.5 -227.5)"/><polygon class="c" points="320.38 406.69 281.95 406.69 242.6 451.04 232.59 463.55 232.59 346.93 200.61 346.93 200.61 505 232.59 505 232.59 502.64 246.81 488.03 258.55 505 294.94 505 267.47 466.05 320.38 406.69"/><path class="c" d="M672.92,715.53v-12.9q0-34-15.86-52.52t-44.95-18.56a61.06,61.06,0,0,0-33.17,9.35A62.55,62.55,0,0,0,555.84,667q-8.24,16.77-8.23,38.1v4a86,86,0,0,0,3,23.42h33.41a50.06,50.06,0,0,1-4.2-17Zm-82.2-49.1q8.09-9.21,21.26-9.21t20.79,8.23q7.5,8.22,8.56,24.28v2.37H580.39Q582.63,675.65,590.72,666.43Z" transform="translate(-223.5 -227.5)"/></svg>